<?xml version="1.0"?>
<svg width="1280" height="1280" xmlns="http://www.w3.org/2000/svg" xmlns:svg="http://www.w3.org/2000/svg" preserveAspectRatio="xMidYMid meet" version="1.0">
 <metadata>Created by potrace 1.15, written by Peter Selinger 2001-2017</metadata>
 <g class="layer">
  <title>Layer 1</title>
  <g fill="#e91e63" id="svg_1" transform="matrix(0.1 0 0 -0.1 0 0)">
   <path d="m6095,-6c-27,-2 -115,-8 -195,-14c-1158,-85 -2296,-503 -3249,-1194c-1410,-1020 -2339,-2557 -2585,-4276c-49,-341 -60,-508 -60,-910c0,-402 11,-569 60,-910c176,-1227 699,-2366 1518,-3305c132,-151 433,-452 594,-593c968,-850 2160,-1386 3427,-1541c308,-38 447,-46 795,-46c348,0 487,8 795,46c1993,244 3764,1427 4767,3184c456,799 722,1651 815,2610c24,253 24,857 0,1110c-81,836 -282,1553 -638,2276c-496,1007 -1245,1859 -2194,2499c-271,183 -726,428 -1045,563c-627,266 -1261,422 -1985,488c-112,10 -729,20 -820,13zm845,-569c748,-74 1424,-266 2069,-589c1755,-879 2947,-2559 3195,-4506c57,-444 57,-1016 0,-1460c-190,-1489 -937,-2843 -2091,-3788c-864,-709 -1899,-1153 -2993,-1286c-276,-34 -395,-41 -720,-41c-325,0 -444,7 -720,41c-2051,249 -3828,1582 -4652,3489c-251,580 -400,1177 -460,1845c-28,312 -15,862 28,1200c247,1945 1440,3627 3195,4506c714,357 1479,558 2309,608c141,8 692,-4 840,-19z" fill="#00007f" id="svg_2"/>
   <path d="m2897,-3424c-83,-30 -140,-88 -169,-170c-16,-48 -17,-178 -18,-2272c0,-2518 -8,-2287 84,-2380c91,-91 -23,-84 1468,-84l1308,0l0,-410l0,-410l-150,0c-177,0 -213,-10 -236,-65c-18,-45 -10,-78 28,-110l30,-25l1158,0l1158,0l30,25c36,30 45,69 26,113c-21,52 -59,62 -234,62l-150,0l0,410l0,410l1308,0c1491,0 1377,-7 1468,85c92,92 85,-140 82,2395l-3,2235l-21,45c-26,54 -74,104 -128,133l-41,22l-3480,2c-2903,2 -3486,0 -3518,-11zm6848,-2431l0,-2110l-3345,0l-3345,0l-3,2100c-1,1155 0,2106 3,2113c3,10 678,12 3347,10l3343,-3l0,-2110z" fill="#00007f" id="svg_3" transform="matrix(1 0 0 1 0 0)"/>
   <path d="m9042,-4567c-52,-26 -77,-69 -77,-136l0,-57l-470,-515l-470,-515l-41,0c-27,0 -54,-8 -78,-25c-20,-14 -42,-25 -49,-25c-7,0 -273,48 -592,107l-580,106l-38,43c-47,54 -95,71 -154,55c-70,-19 -121,-99 -110,-173c1,-10 -170,-186 -460,-471l-462,-455l-43,5c-30,3 -54,-2 -81,-16l-39,-20l-370,152l-370,152l-13,39c-40,117 -176,150 -254,61c-35,-40 -48,-92 -33,-135c11,-29 5,-37 -330,-435l-341,-405l-46,0c-116,0 -184,-124 -123,-223c79,-126 277,-63 270,87l-2,49l344,408c315,374 346,409 374,409c17,0 44,7 59,15c28,14 40,10 395,-136c202,-83 373,-153 380,-156c7,-3 20,-23 29,-44c60,-152 283,-110 283,52l0,44l460,453l460,453l58,2c47,2 66,8 95,30c19,15 42,27 50,27c8,0 270,-47 583,-105c430,-80 571,-109 579,-122c40,-64 95,-103 147,-103c12,0 40,9 63,20c56,27 89,86 82,146l-5,45l473,517l472,517l46,0c108,1 175,111 127,210c-37,75 -123,105 -198,68z" fill="#003f7f" id="svg_4" transform="matrix(1 0 0 1 0 0)"/>
  </g>
 </g>
</svg>